<svg xmlns="http://www.w3.org/2000/svg" width="603" height="134" viewBox="0 0 603 134" fill="none"><path d="M100.987 102.883C98.8961 104.864 96.6393 106.669 94.2287 108.266C86.3727 113.48 76.9609 116.524 66.845 116.524C56.7321 116.524 47.3188 113.48 39.4613 108.266C37.0538 106.669 34.7954 104.864 32.7061 102.883C23.1482 93.8228 17.1678 81.0241 17.1678 66.8465C17.1678 56.7321 20.2134 47.3188 25.4266 39.4628L31.6453 45.6815C27.911 51.8679 25.7525 59.1073 25.7525 66.8465C25.7525 78.6566 30.7659 89.3152 38.771 96.8176C40.8787 98.7931 43.1971 100.544 45.683 102.046C50.7103 105.079 56.4324 107.076 62.5542 107.716V85.175V76.5904L66.845 80.8827L71.1389 76.5904V85.175V107.716C77.2591 107.076 82.9812 105.079 88.01 102.046C90.4959 100.544 92.8143 98.7931 94.922 96.8176C102.926 89.3152 107.937 78.6566 107.937 66.8465C107.937 59.1073 105.78 51.8679 102.046 45.6815L108.266 39.4628C113.478 47.3188 116.522 56.7321 116.522 66.8465C116.522 81.0241 110.545 93.8228 100.987 102.883ZM66.845 17.1694C81.0242 17.1694 93.8228 23.1497 102.881 32.7076L96.8145 38.7741C90.233 31.7513 81.2256 27.0301 71.1389 25.9785V64.4513L66.845 68.7421L62.5542 64.4513V25.9785C52.4659 27.0301 43.46 31.7513 36.877 38.7741L30.8105 32.7076C39.8702 23.1497 52.6689 17.1694 66.845 17.1694ZM66.845 -1.95671e-05C29.928 -1.95671e-05 0 29.928 0 66.848C0 103.765 29.928 133.693 66.845 133.693C103.765 133.693 133.691 103.765 133.691 66.848C133.691 29.928 103.765 -1.95671e-05 66.845 -1.95671e-05Z" fill="#C41F27"></path><path d="M217.546 48.247H193.704V88.603H181.725V48.247H158V39.4071H217.546V48.247Z" fill="#C41F27"></path><path d="M286.396 88.603H233.013V39.4071H285.814V48.1301H245.11V58.8287H268.835V67.3196H245.11V79.4141H286.396V88.603Z" fill="#C41F27"></path><path d="M364.548 88.603H356.289L314.654 55.4557V88.603H303.723V39.4071H311.98L353.731 72.087V39.4071H364.548V88.603Z" fill="#C41F27"></path><path d="M424.907 68.8335L413.394 48.3664L402.343 68.8335H424.907ZM449.445 88.6025H435.956L429.793 77.7871H397.228L391.063 88.6025H379.084L408.276 39.4066H419.789L449.445 88.6025Z" fill="#C41F27"></path><path d="M521.668 76.9723C521.668 81.6244 520.74 84.7268 518.878 86.2796C517.019 87.8308 513.683 88.6025 508.877 88.6025H473.287C468.481 88.6025 465.148 87.8308 463.287 86.2796C461.425 84.7268 460.496 81.6244 460.496 76.9723V51.0384C460.496 46.3847 461.425 43.2854 463.287 41.7357C465.148 40.183 468.481 39.4066 473.287 39.4066H508.877C513.914 39.4066 517.307 40.223 519.052 41.8495C520.797 43.4806 521.668 46.1511 521.668 53.4982L509.923 53.7119V48.4786H472.477V79.1831H509.923V68.7166H490.384V59.9936H521.668V76.9723Z" fill="#C41F27"></path><path d="M578.307 68.8335L566.793 48.3664L555.744 68.8335H578.307ZM602.848 88.6025H589.357L583.191 77.7871H550.628L544.464 88.6025H532.485L561.677 39.4066H573.19L602.848 88.6025Z" fill="#C41F27"></path><path d="M236.615 112.586H225.327V102.183H236.492V104.027H227.886V106.29H232.902V108.086H227.886V110.643H236.615V112.586Z" fill="#C41F27"></path><path d="M254.125 112.586H252.379L243.576 105.577V112.586H241.263V102.183H243.01L251.837 109.093V102.183H254.125V112.586Z" fill="#C41F27"></path><path d="M271.043 112.586H259.755V102.183H270.92V104.027H262.314V106.29H267.33V108.086H262.314V110.643H271.043V112.586Z" fill="#C41F27"></path><path d="M285.134 106.02V104.813C285.134 104.258 284.748 103.979 283.978 103.979H278.199V106.855H283.978C284.748 106.855 285.134 106.575 285.134 106.02ZM288.576 112.586H284.937L280.585 108.651H278.199V112.586H275.69V102.183H285.06C286.683 102.183 287.495 102.855 287.495 104.199V106.66C287.495 107.676 287.06 108.297 286.19 108.529C285.896 108.611 285.043 108.651 283.632 108.651L288.576 112.586Z" fill="#C41F27"></path><path d="M305.348 110.127C305.348 111.112 305.152 111.765 304.758 112.094C304.364 112.42 303.659 112.586 302.644 112.586H295.119C294.102 112.586 293.397 112.42 293.003 112.094C292.61 111.765 292.413 111.112 292.413 110.127V104.643C292.413 103.657 292.61 103.002 293.003 102.673C293.397 102.348 294.102 102.183 295.119 102.183H302.644C303.708 102.183 304.426 102.355 304.795 102.7C305.164 103.044 305.348 103.742 305.348 104.79L302.864 105.209V104.1H294.946V110.592H302.864V108.379H298.732V106.535H305.348V110.127Z" fill="#C41F27"></path><path d="M313.192 112.586H310.66V102.183H313.192V112.586Z" fill="#C41F27"></path><path d="M330.725 110.127C330.725 111.112 330.528 111.765 330.135 112.094C329.741 112.42 329.035 112.586 328.021 112.586H321.258C320.142 112.586 319.408 112.4 319.056 112.031C318.703 111.662 318.527 110.928 318.527 109.831L320.79 109.413V110.643H328.437V108.257H321.7C320.683 108.257 319.986 108.102 319.61 107.79C319.184 107.447 318.97 106.781 318.97 105.797V104.643C318.97 103.657 319.184 102.995 319.61 102.652C319.986 102.341 320.683 102.183 321.7 102.183H327.873C328.922 102.183 329.638 102.348 330.024 102.673C330.408 103.002 330.602 103.676 330.602 104.692L328.414 105.158V104.052H321.258V106.24H328.021C329.035 106.24 329.741 106.402 330.135 106.72C330.528 107.04 330.725 107.699 330.725 108.7V110.127Z" fill="#C41F27"></path><path d="M338.619 112.586H336.085V102.183H338.619V112.586Z" fill="#C41F27"></path><path d="M357.086 112.586H355.34L346.537 105.577V112.586H344.224V102.183H345.971L354.798 109.093V102.183H357.086V112.586Z" fill="#C41F27"></path><path d="M375.407 110.127C375.407 111.112 375.212 111.765 374.818 112.094C374.423 112.42 373.72 112.586 372.703 112.586H365.177C364.161 112.586 363.457 112.42 363.062 112.094C362.67 111.765 362.473 111.112 362.473 110.127V104.643C362.473 103.657 362.67 103.002 363.062 102.673C363.457 102.348 364.161 102.183 365.177 102.183H372.703C373.768 102.183 374.486 102.355 374.855 102.7C375.222 103.044 375.407 103.742 375.407 104.79L372.923 105.209V104.1H365.005V110.592H372.923V108.379H368.793V106.535H375.407V110.127Z" fill="#C41F27"></path><path d="M402.457 104.052H397.415V112.586H394.883V104.052H389.866V102.183H402.457V104.052Z" fill="#C41F27"></path><path d="M419.721 112.586H417.188V108.207H409.269V112.586H406.712V102.183H409.269V106.143H417.188V102.183H419.721V112.586Z" fill="#C41F27"></path><path d="M436.638 112.586H425.349V102.183H436.517V104.027H427.908V106.29H432.926V108.086H427.908V110.643H436.638V112.586Z" fill="#C41F27"></path><path d="M468.288 102.183L464.108 112.586H462.386L459.387 105.233L456.337 112.586H454.592L450.361 102.183H453.016L455.748 109.436L458.673 102.183H460.418L463.319 109.436L466.001 102.183H468.288Z" fill="#C41F27"></path><path d="M482.846 104.1H474.46V110.592H482.846V104.1ZM485.38 110.127C485.38 111.112 485.183 111.765 484.788 112.094C484.396 112.42 483.69 112.586 482.674 112.586H474.632C473.614 112.586 472.912 112.427 472.518 112.105C472.126 111.785 471.928 111.126 471.928 110.127V104.643C471.928 103.642 472.126 102.984 472.518 102.664C472.912 102.343 473.614 102.183 474.632 102.183H482.674C483.69 102.183 484.396 102.343 484.788 102.664C485.183 102.984 485.38 103.642 485.38 104.643V110.127Z" fill="#C41F27"></path><path d="M500.182 106.02V104.813C500.182 104.258 499.795 103.979 499.026 103.979H493.247V106.855H499.026C499.795 106.855 500.182 106.575 500.182 106.02ZM503.625 112.586H499.986L495.633 108.651H493.247V112.586H490.738V102.183H500.109C501.731 102.183 502.542 102.855 502.542 104.199V106.66C502.542 107.676 502.11 108.297 501.239 108.529C500.943 108.611 500.09 108.651 498.682 108.651L503.625 112.586Z" fill="#C41F27"></path><path d="M518.43 112.586H507.707V102.183H510.263V110.643H518.43V112.586Z" fill="#C41F27"></path><path d="M532.912 107.223C532.912 105.109 531.708 104.051 529.296 104.051H524.821V110.643H528.094C529.648 110.643 530.77 110.462 531.462 110.101C532.429 109.578 532.912 108.617 532.912 107.223ZM535.518 107.347C535.518 110.84 533.222 112.585 528.632 112.585H522.264V102.183H529.271C531.125 102.183 532.592 102.567 533.674 103.339C534.904 104.242 535.518 105.578 535.518 107.347Z" fill="#C41F27"></path><path d="M583.433 23.4178V31.2554H581.807V23.4178H578.763V22.0004H586.49V23.4178H583.433Z" fill="#C41F27"></path><path d="M596.464 31.2549V23.711L593.713 31.2549H592.35L589.613 23.7248V31.2549H588.028V21.9999H590.419L593.058 29.2271L595.7 21.9999H598.049V31.2549H596.464Z" fill="#C41F27"></path></svg>